<svg width="20" height="20" viewBox="0 0 20 20" fill="none" xmlns="http://www.w3.org/2000/svg">
<g clip-path="url(#clip0_115_17336)">
<path d="M16.7999 19.1992H15.1999V15.1648C15.1993 14.5376 14.9498 13.9363 14.5063 13.4928C14.0628 13.0493 13.4615 12.7999 12.8343 12.7992H6.3655C5.7383 12.7999 5.13697 13.0493 4.69347 13.4928C4.24997 13.9363 4.00054 14.5376 3.9999 15.1648V19.1992H2.3999V15.1648C2.40117 14.1135 2.81938 13.1055 3.5628 12.3621C4.30622 11.6187 5.31415 11.2005 6.3655 11.1992H12.8343C13.8857 11.2005 14.8936 11.6187 15.637 12.3621C16.3804 13.1055 16.7986 14.1135 16.7999 15.1648V19.1992Z" fill="white"/>
<path d="M9.59981 9.6C8.65046 9.6 7.72243 9.31849 6.93307 8.79106C6.14371 8.26363 5.52849 7.51397 5.16519 6.63688C4.80188 5.7598 4.70683 4.79468 4.89204 3.86357C5.07725 2.93246 5.5344 2.07718 6.20569 1.40589C6.87699 0.734598 7.73226 0.277442 8.66337 0.0922328C9.59448 -0.0929762 10.5596 0.00207977 11.4367 0.36538C12.3138 0.728681 13.0634 1.34391 13.5909 2.13327C14.1183 2.92262 14.3998 3.85065 14.3998 4.8C14.3985 6.07265 13.8924 7.29281 12.9925 8.19271C12.0926 9.09261 10.8725 9.59873 9.59981 9.6ZM9.59981 1.6C8.96691 1.6 8.34822 1.78768 7.82198 2.1393C7.29575 2.49092 6.88559 2.99069 6.64339 3.57542C6.40119 4.16014 6.33782 4.80355 6.46129 5.42429C6.58477 6.04503 6.88954 6.61522 7.33707 7.06274C7.78459 7.51027 8.35478 7.81504 8.97552 7.93852C9.59626 8.06199 10.2397 7.99862 10.8244 7.75642C11.4091 7.51422 11.9089 7.10406 12.2605 6.57783C12.6121 6.05159 12.7998 5.4329 12.7998 4.8C12.7998 3.95131 12.4627 3.13738 11.8625 2.53726C11.2624 1.93714 10.4485 1.6 9.59981 1.6Z" fill="white"/>
</g>
<defs>
<clipPath id="clip0_115_17336">
<rect width="19.2" height="19.2" fill="white"/>
</clipPath>
</defs>
</svg>
