<svg width="20" height="20" viewBox="0 0 20 20" fill="none" xmlns="http://www.w3.org/2000/svg">
<g clip-path="url(#clip0_115_17353)">
<path d="M18.3998 8.80039H16.7998V7.20038C16.7998 6.75855 16.4416 6.40039 15.9998 6.40039C15.558 6.40039 15.1998 6.75855 15.1998 7.20038V8.80039H13.5998C13.158 8.80039 12.7998 9.15855 12.7998 9.60038C12.7998 10.0422 13.158 10.4004 13.5998 10.4004H15.1998V12.0004C15.1998 12.4422 15.558 12.8004 15.9998 12.8004C16.4416 12.8004 16.7998 12.4422 16.7998 12.0004V10.4004H18.3998C18.8416 10.4004 19.1998 10.0422 19.1998 9.60038C19.1998 9.15855 18.8416 8.80039 18.3998 8.80039Z" fill="white"/>
<path d="M7.1999 9.6C9.85087 9.6 11.9999 7.45097 11.9999 4.8C11.9999 2.14903 9.85087 0 7.1999 0C4.54894 0 2.3999 2.14903 2.3999 4.8C2.3999 7.45097 4.54894 9.6 7.1999 9.6Z" fill="white"/>
<path d="M7.2 11.1992C3.22537 11.2036 0.004425 14.4246 0 18.3992C0 18.841 0.358162 19.1992 0.799987 19.1992H13.6C14.0418 19.1992 14.4 18.841 14.4 18.3992C14.3956 14.4246 11.1746 11.2036 7.2 11.1992Z" fill="white"/>
</g>
<defs>
<clipPath id="clip0_115_17353">
<rect width="19.2" height="19.2" fill="white"/>
</clipPath>
</defs>
</svg>
